<?xml version="1.0" encoding="utf-8"?>
<!-- Generator: Adobe Illustrator 22.0.1, SVG Export Plug-In . SVG Version: 6.00 Build 0)  -->
<svg version="1.1" id="Layer_1" xmlns="http://www.w3.org/2000/svg" xmlns:xlink="http://www.w3.org/1999/xlink" x="0px" y="0px"
	 viewBox="0 0 512 512" style="enable-background:new 0 0 512 512;" xml:space="preserve">
<style type="text/css">
	.st0{fill:#1C6DC5;}
</style>
<path class="st0" d="M294.6,3C112.3-24.8-37.9,143.7,8.5,321c2.1,8,10.3,12.8,18.3,10.7c8-2.1,12.8-10.3,10.7-18.3
	C13.9,223.2,47.2,129.3,122.3,74c100.3-73.8,242-52.2,315.8,48.2c73.8,100.4,52.2,242.1-48.1,315.9c-90.3,66.4-214.8,56-292.8-21.4
	l23.5,1.9c8.3,0.7,15.5-5.5,16.1-13.8s-5.5-15.5-13.8-16.1l-59.8-4.8c-8.2-0.7-15.5,5.5-16.1,13.7l-4.9,59.7
	c-0.7,8.3,5.5,15.5,13.7,16.2c8.2,0.7,15.5-5.5,16.2-13.7L74,436c49.3,50,115.4,76,182.2,76c122.9,0,233.2-88.9,252.8-217.3
	C530.4,154.8,434.5,24.4,294.6,3z"/>
<path class="st0" d="M286.1,151.1c-8.3,0-15,6.7-15,15v90c0,19.3,15.7,35,35,35h40v56c0,8.3,6.7,15,15,15s15-6.7,15-15v-56h15
	c8.3,0,15-6.7,15-15s-6.7-15-15-15h-15v-95c0-8.3-6.7-15-15-15s-15,6.7-15,15v95h-40c-2.8,0-5-2.2-5-5v-90
	C301.1,157.8,294.3,151.1,286.1,151.1z"/>
<path class="st0" d="M124.2,337.1c-7.4,9.9-0.3,24,12,24h89.9c8.3,0,15-6.7,15-15s-6.7-15-15-15h-59.9c0.2-0.3,63.7-85,63.9-85.3
	c19.1-27,12.7-64.5-14.3-83.6c-38.2-27.1-91.4-1.5-94.5,45c-0.5,8.3,5.7,15.4,14,16c8.3,0.5,15.4-5.7,15.9-14
	c1.5-23.2,28.1-36,47.3-22.5c13.4,9.5,16.7,28.2,7.2,41.7L124.2,337.1z"/>
<path class="st0" d="M91.2,256.1c0-8.3-6.7-15-15-15c-8.3,0-15,6.7-15,15c0,8.3,6.7,15,15,15C84.4,271.1,91.2,264.4,91.2,256.1z"/>
<path class="st0" d="M451,256.1c0-8.3-6.7-15-15-15c-8.3,0-15,6.7-15,15c0,8.3,6.7,15,15,15C444.3,271.1,451,264.4,451,256.1z"/>
<path class="st0" d="M271.1,76.1c0-8.3-6.7-15-15-15c-8.3,0-15,6.7-15,15c0,8.3,6.7,15,15,15C264.4,91.1,271.1,84.4,271.1,76.1z"/>
<path class="st0" d="M271.1,436.1c0-8.3-6.7-15-15-15c-8.3,0-15,6.7-15,15c0,8.3,6.7,15,15,15C264.4,451.1,271.1,444.3,271.1,436.1z
	"/>
</svg>
