<?xml version="1.0" encoding="utf-8"?>
<!-- Generator: Adobe Illustrator 22.0.1, SVG Export Plug-In . SVG Version: 6.00 Build 0)  -->
<svg version="1.1" id="Layer_1" xmlns="http://www.w3.org/2000/svg" xmlns:xlink="http://www.w3.org/1999/xlink" x="0px" y="0px"
	 viewBox="0 0 512 512" style="enable-background:new 0 0 512 512;" xml:space="preserve">
<style type="text/css">
	.st0{fill:#0F86EA;}
</style>
<path class="st0" d="M497,482h-4.8V200.8h4.8c8.3,0,15-6.7,15-15s-6.7-15-15-15H301.1V30h5.8c8.3,0,15-6.7,15-15s-6.7-15-15-15H15
	C6.7,0,0,6.7,0,15s6.7,15,15,15h6.1v452H15c-8.3,0-15,6.7-15,15s6.7,15,15,15h482c8.3,0,15-6.7,15-15S505.3,482,497,482z M237.8,482
	v-65.6c0-8.3-6.7-15-15-15c-8.3,0-15,6.7-15,15V482h-32v-65.6c0-8.3-6.7-15-15-15c-8.3,0-15,6.7-15,15V482h-32v-65.6
	c0-8.3-6.7-15-15-15c-8.3,0-15,6.7-15,15V482H51.1V30h220v452H237.8z M427.6,482v-59.3c0-8.3-6.7-15-15-15c-8.3,0-15,6.7-15,15V482
	h-32v-59.3c0-8.3-6.7-15-15-15c-8.3,0-15,6.7-15,15V482h-34.6V201.5h161.1V482H427.6z"/>
<path class="st0" d="M161.1,60.8c-8.3,0-15,6.7-15,15V101c0,8.3,6.7,15,15,15s15-6.7,15-15V75.8C176.1,67.5,169.3,60.8,161.1,60.8z"
	/>
<path class="st0" d="M99.1,60.8c-8.3,0-15,6.7-15,15V101c0,8.3,6.7,15,15,15s15-6.7,15-15V75.8C114.1,67.5,107.3,60.8,99.1,60.8z"/>
<path class="st0" d="M223.1,60.8c-8.3,0-15,6.7-15,15V101c0,8.3,6.7,15,15,15s15-6.7,15-15V75.8C238.1,67.5,231.3,60.8,223.1,60.8z"
	/>
<path class="st0" d="M160.9,146.3c-8.3,0-15,6.7-15,15v25.2c0,8.3,6.7,15,15,15s15-6.7,15-15v-25.2
	C175.9,153,169.2,146.3,160.9,146.3z"/>
<path class="st0" d="M98.9,146.3c-8.3,0-15,6.7-15,15v25.2c0,8.3,6.7,15,15,15s15-6.7,15-15v-25.2C113.9,153,107.2,146.3,98.9,146.3
	z"/>
<path class="st0" d="M222.9,146.3c-8.3,0-15,6.7-15,15v25.2c0,8.3,6.7,15,15,15s15-6.7,15-15v-25.2
	C237.9,153,231.2,146.3,222.9,146.3z"/>
<path class="st0" d="M160.9,231.1c-8.3,0-15,6.7-15,15v25.2c0,8.3,6.7,15,15,15s15-6.7,15-15v-25.2
	C175.9,237.9,169.2,231.1,160.9,231.1z"/>
<path class="st0" d="M98.9,231.1c-8.3,0-15,6.7-15,15v25.2c0,8.3,6.7,15,15,15s15-6.7,15-15v-25.2
	C113.9,237.9,107.2,231.1,98.9,231.1z"/>
<path class="st0" d="M222.9,231.1c-8.3,0-15,6.7-15,15v25.2c0,8.3,6.7,15,15,15s15-6.7,15-15v-25.2
	C237.9,237.9,231.2,231.1,222.9,231.1z"/>
<path class="st0" d="M160.8,316.6c-8.3,0-15,6.7-15,15v25.2c0,8.3,6.7,15,15,15c8.3,0,15-6.7,15-15v-25.2
	C175.8,323.3,169.1,316.6,160.8,316.6z"/>
<path class="st0" d="M98.8,316.6c-8.3,0-15,6.7-15,15v25.2c0,8.3,6.7,15,15,15c8.3,0,15-6.7,15-15v-25.2
	C113.8,323.3,107.1,316.6,98.8,316.6z"/>
<path class="st0" d="M222.8,316.6c-8.3,0-15,6.7-15,15v25.2c0,8.3,6.7,15,15,15c8.3,0,15-6.7,15-15v-25.2
	C237.8,323.3,231.1,316.6,222.8,316.6z"/>
<path class="st0" d="M412.7,231.1c-8.3,0-15,6.7-15,15v25.2c0,8.3,6.7,15,15,15s15-6.7,15-15v-25.2
	C427.7,237.9,421,231.1,412.7,231.1z"/>
<path class="st0" d="M350.7,231.1c-8.3,0-15,6.7-15,15v25.2c0,8.3,6.7,15,15,15s15-6.7,15-15v-25.2
	C365.7,237.9,359,231.1,350.7,231.1z"/>
<path class="st0" d="M412.6,316.6c-8.3,0-15,6.7-15,15v25.2c0,8.3,6.7,15,15,15c8.3,0,15-6.7,15-15v-25.2
	C427.6,323.3,420.8,316.6,412.6,316.6z"/>
<path class="st0" d="M350.6,316.6c-8.3,0-15,6.7-15,15v25.2c0,8.3,6.7,15,15,15c8.3,0,15-6.7,15-15v-25.2
	C365.6,323.3,358.8,316.6,350.6,316.6z"/>
</svg>
