<?xml version="1.0" encoding="utf-8"?>
<!-- Generator: Adobe Illustrator 22.0.1, SVG Export Plug-In . SVG Version: 6.00 Build 0)  -->
<svg version="1.1" id="Capa_1" xmlns="http://www.w3.org/2000/svg" xmlns:xlink="http://www.w3.org/1999/xlink" x="0px" y="0px"
	 viewBox="0 0 512 512" style="enable-background:new 0 0 512 512;" xml:space="preserve">
<style type="text/css">
	.st0{fill:#FFFFFF;}
</style>
<g>
	<g>
		<path class="st0" d="M390,491.7l-120-315c-2.2-5.8-7.8-9.7-14-9.7s-11.8,3.8-14,9.7l-120,315c-2.3,6-0.5,12.8,4.5,16.9
			c5,4.1,12,4.5,17.5,1.1l112.1-70l112,70c5.5,3.4,12.5,3,17.5-1.1C390.5,504.5,392.3,497.7,390,491.7z M264,409.3
			c-4.9-3-11-3-15.9,0l-82.1,51.3L256,224.1l90.1,236.5L264,409.3z"/>
	</g>
</g>
<g>
	<g>
		<path class="st0" d="M497,210h-19.5c-13.1-63.9-53.8-118.2-109-150h56.1c6.2,17.5,22.9,30,42.4,30c24.8,0,45-20.2,45-45
			S491.8,0,467,0c-19.6,0-36.2,12.5-42.4,30H301V15c0-8.3-6.7-15-15-15h-60c-8.3,0-15,6.7-15,15v15H87.4C81.2,12.5,64.6,0,45,0
			C20.2,0,0,20.2,0,45s20.2,45,45,45c19.6,0,36.2-12.7,42.4-30.2h56.1c-55.3,31.8-96,86.3-109,150.2H15c-8.3,0-15,6.7-15,15v60
			c0,8.3,6.7,15,15,15h60c8.3,0,15-6.7,15-15v-60c0-8.3-6.7-15-15-15h-9.8c17-71.3,73.9-127.8,145.8-144.8V75c0,8.3,6.7,15,15,15h60
			c8.3,0,15-6.7,15-15v-9.8c71.9,16.9,128.8,73.5,145.8,144.8H437c-8.3,0-15,6.7-15,15v60c0,8.3,6.7,15,15,15h60c8.3,0,15-6.7,15-15
			v-60C512,216.7,505.3,210,497,210z M467,30c8.3,0,15,6.7,15,15s-6.7,15-15,15s-15-6.7-15-15S458.7,30,467,30z M45,60
			c-8.3,0-15-6.7-15-15s6.7-15,15-15s15,6.7,15,15S53.3,60,45,60z M60,270H30v-30c3.5,0,26.5,0,30,0V270z M271,60h-30V30h30V60z
			 M482,270h-30v-30c3.5,0,26.5,0,30,0V270z"/>
	</g>
</g>
</svg>
