<?xml version="1.0" encoding="utf-8"?>
<!-- Generator: Adobe Illustrator 22.0.1, SVG Export Plug-In . SVG Version: 6.00 Build 0)  -->
<svg version="1.1" id="Capa_1" xmlns="http://www.w3.org/2000/svg" xmlns:xlink="http://www.w3.org/1999/xlink" x="0px" y="0px"
	 viewBox="0 0 512 512" style="enable-background:new 0 0 512 512;" xml:space="preserve">
<style type="text/css">
	.st0{fill:#0F86EA;}
</style>
<g>
	<path class="st0" d="M497,302h-6.8l-18.4-146.9c-0.9-7.5-7.3-13.1-14.9-13.1h-50c-7.6,0-13.9,5.6-14.9,13.1L373.8,302h-23.5
		l-18.4-146.9c-0.9-7.5-7.3-13.1-14.9-13.1h-50c-7.6,0-13.9,5.6-14.9,13.1L233.8,302H212V197c0-8.3-6.7-15-15-15H15
		c-8.3,0-15,6.7-15,15v300c0,8.3,6.7,15,15,15h482c8.3,0,15-6.7,15-15V317C512,308.7,505.3,302,497,302z M420.2,172h23.5L460,302
		h-56L420.2,172z M280.2,172h23.5L320,302h-56L280.2,172z M30,212h152v105v165h-31v-65c0-8.3-6.7-15-15-15H76c-8.3,0-15,6.7-15,15
		v65H30V212z M91,482v-50h30v50H91z M292,482v-30h110v30H292z M482,482h-50v-45c0-8.3-6.7-15-15-15H277c-8.3,0-15,6.7-15,15v45h-50
		V332h270V482z"/>
	<path class="st0" d="M357,362h-20c-8.3,0-15,6.7-15,15s6.7,15,15,15h20c8.3,0,15-6.7,15-15S365.3,362,357,362z"/>
	<path class="st0" d="M437,362h-20c-8.3,0-15,6.7-15,15s6.7,15,15,15h20c8.3,0,15-6.7,15-15S445.3,362,437,362z"/>
	<path class="st0" d="M197,60h205c8.3,0,15,6.7,15,15v30c0,8.3,6.7,15,15,15s15-6.7,15-15V75c0-24.8-20.2-45-45-45H197
		c-8.3,0-15-6.7-15-15c0-8.3-6.7-15-15-15s-15,6.7-15,15C152,39.8,172.2,60,197,60z"/>
	<path class="st0" d="M137,120h155c8.3,0,15-6.7,15-15s-6.7-15-15-15H137c-8.3,0-15-6.7-15-15c0-8.3-6.7-15-15-15s-15,6.7-15,15
		C92,99.8,112.2,120,137,120z"/>
	<path class="st0" d="M136,372c8.3,0,15-6.7,15-15v-20c0-8.3-6.7-15-15-15s-15,6.7-15,15v20C121,365.3,127.7,372,136,372z"/>
	<path class="st0" d="M76,372c8.3,0,15-6.7,15-15v-20c0-8.3-6.7-15-15-15s-15,6.7-15,15v20C61,365.3,67.7,372,76,372z"/>
	<path class="st0" d="M136,292c8.3,0,15-6.7,15-15v-20c0-8.3-6.7-15-15-15s-15,6.7-15,15v20C121,285.3,127.7,292,136,292z"/>
	<path class="st0" d="M76,292c8.3,0,15-6.7,15-15v-20c0-8.3-6.7-15-15-15s-15,6.7-15,15v20C61,285.3,67.7,292,76,292z"/>
	<path class="st0" d="M277,362h-20c-8.3,0-15,6.7-15,15s6.7,15,15,15h20c8.3,0,15-6.7,15-15S285.3,362,277,362z"/>
</g>
</svg>
