<?xml version="1.0" encoding="utf-8"?>
<!-- Generator: Adobe Illustrator 22.0.1, SVG Export Plug-In . SVG Version: 6.00 Build 0)  -->
<svg version="1.1" id="Layer_1" xmlns="http://www.w3.org/2000/svg" xmlns:xlink="http://www.w3.org/1999/xlink" x="0px" y="0px"
	 viewBox="0 0 512 512" style="enable-background:new 0 0 512 512;" xml:space="preserve">
<style type="text/css">
	.st0{fill:#1C6DC5;}
</style>
<path class="st0" d="M256,41c8.3,0,15-6.7,15-15V15c0-8.3-6.7-15-15-15c-8.3,0-15,6.7-15,15v11C241,34.3,247.8,41,256,41z"/>
<path class="st0" d="M336.7,62.5c2.4,1.4,4.9,2,7.5,2c5.2,0,10.2-2.7,13-7.5l5.5-9.5c4.1-7.2,1.7-16.3-5.5-20.5
	c-7.2-4.1-16.3-1.7-20.5,5.5l-5.5,9.5C327.1,49.2,329.5,58.3,336.7,62.5z"/>
<path class="st0" d="M431.3,100.9c-4.1-7.2-13.3-9.6-20.5-5.5l-9.5,5.5c-7.2,4.1-9.6,13.3-5.5,20.5c2.8,4.8,7.8,7.5,13,7.5
	c2.5,0,5.1-0.6,7.5-2l9.5-5.5C433,117.3,435.5,108.1,431.3,100.9z"/>
<path class="st0" d="M111,101.4l-9.5-5.5c-7.2-4.1-16.4-1.7-20.5,5.5c-4.1,7.2-1.7,16.3,5.5,20.5l9.5,5.5c2.4,1.4,4.9,2,7.5,2
	c5.2,0,10.2-2.7,13-7.5C120.7,114.7,118.2,105.5,111,101.4z"/>
<path class="st0" d="M155,57.2c2.8,4.8,7.8,7.5,13,7.5c2.5,0,5.1-0.6,7.5-2c7.2-4.1,9.6-13.3,5.5-20.5l-5.5-9.5
	c-4.1-7.2-13.3-9.6-20.5-5.5c-7.2,4.1-9.6,13.3-5.5,20.5L155,57.2z"/>
<path class="st0" d="M348.1,109.3c-24.7-24.4-57.4-37.8-92.1-37.8s-67.4,13.4-92.1,37.8c-11.8,11.7-21.4,25.5-28,40.7
	c-6.7,15.3-10.3,31.8-10.8,48.4c-0.1,3.4,0.4,6.5,1.5,9.7c0.3,0.8,54.1,153.7,54.4,154.5V420c0,8,5.7,14.5,15,15v17
	c0,33.1,26.9,60,60,60c33.1,0,60-26.9,60-60v-17c8.3,0,15-6.7,15-15v-57.4c6.9-19.5,51.1-144.5,52.7-148.9
	c1.3-3.6,3.4-10.7,3.2-13.4C385,165.9,372.6,133.6,348.1,109.3z M286,452c0,16.5-13.5,30-30,30c-16.5,0-30-13.5-30-30v-17h60V452z
	 M301,405h-90v-30h90V405z M305.4,345h-98.8c-3.5-10-45.4-129-45.4-129h189.6C343.8,235.8,305.4,345,305.4,345z M156.4,186
	c7.9-47.8,49.8-84.5,99.6-84.5c49.8,0,91.7,36.7,99.6,84.5H156.4z"/>
</svg>
