<?xml version="1.0" encoding="utf-8"?>
<!-- Generator: Adobe Illustrator 22.0.1, SVG Export Plug-In . SVG Version: 6.00 Build 0)  -->
<svg version="1.1" id="Layer_1" xmlns="http://www.w3.org/2000/svg" xmlns:xlink="http://www.w3.org/1999/xlink" x="0px" y="0px"
	 viewBox="0 0 381.6 99.5" style="enable-background:new 0 0 381.6 99.5;" xml:space="preserve">
<style type="text/css">
	.st0{fill:#004C97;}
	.st1{fill:none;stroke:#004C97;stroke-width:1.0489;stroke-miterlimit:22.9256;}
</style>
<g>
	<polygon class="st0" points="340,63.9 340,0.5 351.8,0.5 351.8,53.5 368.1,53.5 368.1,63.9 340,63.9 	"/>
	<polygon class="st0" points="304.3,63.9 304.3,0.5 316.2,0.5 316.2,53.5 332.4,53.5 332.4,63.9 304.3,63.9 	"/>
	<path class="st0" d="M250.5,63.9l15.7-63.7h16l15.7,63.7h-11.8l-3.6-16.1h-16.5l-3.6,16.1H250.5L250.5,63.9z M268.3,37.5h12
		l-6-26.3L268.3,37.5L268.3,37.5z"/>
	<polygon class="st0" points="200.8,63.9 200.8,0.5 215.3,0.5 234.4,45.1 234.4,0.5 245.3,0.5 245.3,63.9 230.9,63.9 211.8,19.2 
		211.8,63.9 200.8,63.9 	"/>
	<path class="st0" d="M156.9,63.9V0.5h15.4c6.5,0,11.3,1.6,14.4,4.6c3.1,3.1,4.6,7.8,4.6,14.2c0,8-2.7,13.6-8,16.8l12.2,27.7h-12.6
		l-10-24.6h-4.2v24.6H156.9L156.9,63.9z M168.7,29.1h3c2.8,0,4.8-0.8,6-2.4c1.2-1.6,1.8-3.9,1.8-7c0-3.2-0.6-5.5-1.9-6.9
		c-1.3-1.4-3.3-2.1-6-2.1h-2.9V29.1L168.7,29.1z"/>
	<polygon class="st0" points="118.1,63.9 118.1,0.5 146.7,0.5 146.7,10.7 130,10.7 130,25.8 145.5,25.8 145.5,36 130,36 130,53.5 
		146.7,53.5 146.7,63.9 118.1,63.9 	"/>
	<polygon class="st0" points="76.4,10.9 76.4,0.5 112.4,0.5 112.4,10.9 100.3,10.9 100.3,63.9 88.5,63.9 88.5,10.9 76.4,10.9 	"/>
	<polygon class="st0" points="32.7,63.9 47.2,31 33.8,0.5 45.7,0.5 54,21.4 61.3,0.5 73.7,0.5 60.2,31.5 74.7,63.9 62.5,63.9 
		53.4,41.2 45,63.9 32.7,63.9 	"/>
	<polygon class="st0" points="0.9,63.9 0.9,0.5 29.5,0.5 29.5,10.7 12.7,10.7 12.7,25.8 26.2,25.8 26.2,36 12.7,36 12.7,53.5 
		29.5,53.5 29.5,63.9 0.9,63.9 	"/>
	<path class="st1" d="M374.9,13c3.4,0,6.2-2.8,6.2-6.2c0-3.4-2.8-6.2-6.2-6.2c-3.4,0-6.2,2.8-6.2,6.2C368.6,10.2,371.4,13,374.9,13
		L374.9,13z"/>
	<path class="st0" d="M372.5,11.2V2.1h2.2c0.9,0,1.6,0.2,2.1,0.7c0.4,0.4,0.7,1.1,0.7,2c0,1.2-0.4,2-1.2,2.4l1.8,4h-1.8l-1.4-3.5
		h-0.6v3.5H372.5L372.5,11.2z M374.2,6.2h0.4c0.4,0,0.7-0.1,0.9-0.3c0.2-0.2,0.3-0.6,0.3-1c0-0.5-0.1-0.8-0.3-1
		c-0.2-0.2-0.5-0.3-0.9-0.3h-0.4V6.2L374.2,6.2z"/>
	<path class="st0" d="M0,95.1V94c0.5,0.2,1.1,0.4,1.7,0.5c0.7,0.1,1.3,0.2,2,0.2c2.6,0,3.9-1.1,3.9-3.4c0-1.2-0.4-2.1-1.1-2.6
		c-0.7-0.6-1.9-0.8-3.5-0.8H1.6v-1h1.5c1.3,0,2.4-0.3,3.1-0.9c0.7-0.6,1.1-1.5,1.1-2.6c0-0.9-0.3-1.7-0.8-2.1
		c-0.6-0.5-1.3-0.7-2.4-0.7c-0.6,0-1.1,0.1-1.6,0.3c-0.5,0.2-0.9,0.4-1.2,0.7l-0.9-0.7c1.1-0.9,2.3-1.3,3.8-1.3c1.4,0,2.5,0.3,3.3,1
		c0.8,0.7,1.2,1.6,1.2,2.8c0,1-0.3,1.9-1,2.6c-0.6,0.7-1.5,1.1-2.6,1.4v0.1c1.3,0.1,2.2,0.5,2.9,1.2c0.6,0.7,1,1.6,1,2.7
		c0,1.4-0.5,2.5-1.4,3.3c-0.9,0.8-2.3,1.2-3.9,1.2C2.3,95.7,1.1,95.5,0,95.1L0,95.1z M10.9,95.5l5-15.7h1.4l5.2,15.7h-1.4l-1.8-5.7
		h-5.2l-1.8,5.7H10.9L10.9,95.5z M14.4,88.7h4.5l-1.9-5.9c-0.2-0.7-0.3-1.3-0.4-1.9c-0.1,0.6-0.2,1.3-0.4,1.9L14.4,88.7L14.4,88.7z
		 M24.8,95.5V79.8h4c1.7,0,2.9,0.3,3.8,0.9c0.9,0.6,1.3,1.6,1.3,2.8c0,2.1-1,3.4-3.1,3.7v0.1c1.2,0.2,2.1,0.6,2.7,1.2
		c0.6,0.6,0.9,1.5,0.9,2.6c0,1.4-0.4,2.5-1.2,3.3c-0.8,0.8-2,1.2-3.5,1.2H24.8L24.8,95.5z M26.2,94.5h3.2c2.3,0,3.5-1.2,3.5-3.5
		c0-1-0.3-1.9-1-2.4c-0.7-0.6-1.6-0.8-2.9-0.8h-2.8V94.5L26.2,94.5z M26.2,86.8h2.6c1.3,0,2.2-0.3,2.8-0.8c0.6-0.5,0.8-1.4,0.8-2.5
		c0-0.9-0.3-1.6-0.9-2c-0.6-0.5-1.5-0.7-2.7-0.7h-2.6V86.8L26.2,86.8z M37.1,87.6c0-2.7,0.5-4.7,1.5-6.1c1-1.3,2.5-2,4.6-2
		c2,0,3.4,0.7,4.5,2.1c1,1.4,1.5,3.4,1.5,6c0,2.6-0.5,4.6-1.6,6c-1,1.4-2.5,2.1-4.5,2.1c-2,0-3.5-0.7-4.5-2.1
		C37.6,92.2,37.1,90.2,37.1,87.6L37.1,87.6z M38.6,87.6c0,2.3,0.4,4.1,1.2,5.3c0.8,1.2,1.9,1.8,3.4,1.8c1.5,0,2.6-0.6,3.4-1.8
		c0.8-1.2,1.2-3,1.2-5.3c0-2.3-0.4-4.1-1.1-5.3c-0.8-1.2-1.9-1.8-3.4-1.8c-1.5,0-2.7,0.6-3.5,1.8C39,83.6,38.6,85.3,38.6,87.6
		L38.6,87.6z M50.4,94.5h1.2c1.1-2.6,1.9-5,2.4-7.2c0.5-2.2,0.7-4.7,0.7-7.5h6.6v14.7h1.8v5h-1.3v-4H51.7v4h-1.3V94.5L50.4,94.5z
		 M53.1,94.5h6.8V80.8h-3.7C56,85.8,54.9,90.4,53.1,94.5L53.1,94.5z M71.5,95.5V79.8h10.1v15.7h-1.4V80.8h-7.3v14.7H71.5L71.5,95.5z
		 M85.5,87.6c0-2.7,0.5-4.7,1.5-6.1c1-1.3,2.5-2,4.6-2c2,0,3.4,0.7,4.5,2.1c1,1.4,1.5,3.4,1.5,6c0,2.6-0.5,4.6-1.6,6
		c-1,1.4-2.5,2.1-4.5,2.1c-2,0-3.5-0.7-4.5-2.1C86.1,92.2,85.5,90.2,85.5,87.6L85.5,87.6z M87,87.6c0,2.3,0.4,4.1,1.2,5.3
		c0.8,1.2,1.9,1.8,3.4,1.8c1.5,0,2.6-0.6,3.4-1.8c0.8-1.2,1.2-3,1.2-5.3c0-2.3-0.4-4.1-1.1-5.3c-0.8-1.2-1.9-1.8-3.4-1.8
		c-1.5,0-2.7,0.6-3.5,1.8C87.4,83.6,87,85.3,87,87.6L87,87.6z M107.1,95.5V79.8h1.4v13.9c0,0.2,4.7-8.3,7.8-13.9h1.9v15.7h-1.4v-14
		l-7.8,14H107.1L107.1,95.5z M121.2,95.1V94c0.5,0.2,1.1,0.4,1.7,0.5c0.7,0.1,1.3,0.2,2,0.2c2.6,0,3.9-1.1,3.9-3.4
		c0-1.2-0.4-2.1-1.1-2.6c-0.7-0.6-1.9-0.8-3.5-0.8h-1.4v-1h1.5c1.3,0,2.4-0.3,3.1-0.9c0.7-0.6,1.1-1.5,1.1-2.6
		c0-0.9-0.3-1.7-0.8-2.1c-0.6-0.5-1.3-0.7-2.4-0.7c-0.6,0-1.1,0.1-1.6,0.3c-0.5,0.2-0.9,0.4-1.2,0.7l-0.9-0.7
		c1.1-0.9,2.3-1.3,3.8-1.3c1.4,0,2.5,0.3,3.3,1c0.8,0.7,1.2,1.6,1.2,2.8c0,1-0.3,1.9-1,2.6c-0.6,0.7-1.5,1.1-2.6,1.4v0.1
		c1.3,0.1,2.2,0.5,2.9,1.2c0.6,0.7,1,1.6,1,2.7c0,1.4-0.5,2.5-1.4,3.3c-0.9,0.8-2.3,1.2-3.9,1.2C123.6,95.7,122.3,95.5,121.2,95.1
		L121.2,95.1z M134.4,95.5V79.8h7.3v1h-5.9v14.7H134.4L134.4,95.5z M142.9,87.6c0-2.7,0.5-4.7,1.5-6.1c1-1.3,2.5-2,4.6-2
		c2,0,3.4,0.7,4.5,2.1c1,1.4,1.5,3.4,1.5,6c0,2.6-0.5,4.6-1.6,6c-1,1.4-2.5,2.1-4.5,2.1c-2,0-3.5-0.7-4.5-2.1
		C143.4,92.2,142.9,90.2,142.9,87.6L142.9,87.6z M144.4,87.6c0,2.3,0.4,4.1,1.2,5.3c0.8,1.2,1.9,1.8,3.4,1.8c1.5,0,2.6-0.6,3.4-1.8
		c0.8-1.2,1.2-3,1.2-5.3c0-2.3-0.4-4.1-1.1-5.3c-0.8-1.2-1.9-1.8-3.4-1.8c-1.5,0-2.7,0.6-3.5,1.8C144.8,83.6,144.4,85.3,144.4,87.6
		L144.4,87.6z M156,80.8v-1h9.7v1h-4.1v14.7h-1.4V80.8H156L156,80.8z M167,87.6c0-2.7,0.5-4.7,1.5-6.1c1-1.3,2.5-2,4.6-2
		c2,0,3.4,0.7,4.5,2.1c1,1.4,1.5,3.4,1.5,6c0,2.6-0.5,4.6-1.6,6c-1,1.4-2.5,2.1-4.5,2.1c-2,0-3.5-0.7-4.5-2.1
		C167.5,92.2,167,90.2,167,87.6L167,87.6z M168.4,87.6c0,2.3,0.4,4.1,1.2,5.3c0.8,1.2,1.9,1.8,3.4,1.8c1.5,0,2.6-0.6,3.4-1.8
		c0.8-1.2,1.2-3,1.2-5.3c0-2.3-0.4-4.1-1.1-5.3c-0.8-1.2-1.9-1.8-3.4-1.8c-1.5,0-2.7,0.6-3.5,1.8C168.8,83.6,168.4,85.3,168.4,87.6
		L168.4,87.6z M183,95.5V79.8h4c1.7,0,2.9,0.3,3.8,0.9c0.9,0.6,1.3,1.6,1.3,2.8c0,2.1-1,3.4-3.1,3.7v0.1c1.2,0.2,2.1,0.6,2.7,1.2
		c0.6,0.6,0.9,1.5,0.9,2.6c0,1.4-0.4,2.5-1.2,3.3c-0.8,0.8-2,1.2-3.5,1.2H183L183,95.5z M184.4,94.5h3.2c2.3,0,3.5-1.2,3.5-3.5
		c0-1-0.3-1.9-1-2.4c-0.7-0.6-1.6-0.8-2.9-0.8h-2.8V94.5L184.4,94.5z M184.4,86.8h2.6c1.3,0,2.2-0.3,2.8-0.8
		c0.6-0.5,0.8-1.4,0.8-2.5c0-0.9-0.3-1.6-0.9-2c-0.6-0.5-1.5-0.7-2.7-0.7h-2.6V86.8L184.4,86.8z M193.4,95.5v-1
		c0.2,0.1,0.5,0.2,1,0.2c0.3,0,0.6,0,0.8-0.1c0.2-0.1,0.4-0.3,0.6-0.5c0.2-0.3,0.3-0.7,0.5-1.2c0.1-0.5,0.3-1.2,0.4-2
		c0.1-0.8,0.6-4.5,1.4-11.1h6.8v15.7h-1.4V80.8h-4.1l-0.6,5.1c-0.4,3.7-0.8,6.1-1,7.1c-0.3,1-0.6,1.7-1.1,2.1
		c-0.5,0.4-1.2,0.6-2.1,0.6C194,95.7,193.7,95.6,193.4,95.5L193.4,95.5z M209.3,95.5V79.8h7.6v1h-6.2v6h5.8v1h-5.8v6.7h6.2v1H209.3
		L209.3,95.5z M220.6,95.5V79.8h1.4v7h7.3v-7h1.4v15.7h-1.4v-7.7H222v7.7H220.6L220.6,95.5z M235.4,95.5V79.8h1.4v13.9l7.8-13.9h1.9
		v15.7H245v-14l-7.8,14H235.4L235.4,95.5z M251,95.5V79.8h1.4v7h3.5c0.2-4.8,2-7.2,5.6-7.2c1.8,0,3.1,0.7,4.1,2.1
		c1,1.4,1.4,3.4,1.4,6c0,2.6-0.5,4.6-1.4,6c-1,1.4-2.3,2.1-4.1,2.1c-1.8,0-3.1-0.7-4.1-2c-1-1.4-1.4-3.3-1.5-5.9h-3.5v7.7H251
		L251,95.5z M257.4,87.6c0,2.3,0.3,4.1,1,5.3c0.7,1.2,1.7,1.8,3,1.8c1.3,0,2.4-0.6,3-1.8c0.7-1.2,1-3,1-5.3c0-2.3-0.3-4.1-1-5.3
		c-0.7-1.2-1.7-1.8-3-1.8c-1.4,0-2.4,0.6-3.1,1.8C257.7,83.5,257.4,85.3,257.4,87.6L257.4,87.6z M276.4,95.5V79.8h4
		c1.7,0,2.9,0.3,3.8,0.9c0.9,0.6,1.3,1.6,1.3,2.8c0,2.1-1,3.4-3.1,3.7v0.1c1.2,0.2,2.1,0.6,2.7,1.2c0.6,0.6,0.9,1.5,0.9,2.6
		c0,1.4-0.4,2.5-1.2,3.3c-0.8,0.8-2,1.2-3.5,1.2H276.4L276.4,95.5z M277.8,94.5h3.2c2.3,0,3.5-1.2,3.5-3.5c0-1-0.3-1.9-1-2.4
		c-0.7-0.6-1.6-0.8-2.9-0.8h-2.8V94.5L277.8,94.5z M277.8,86.8h2.6c1.3,0,2.2-0.3,2.8-0.8c0.6-0.5,0.8-1.4,0.8-2.5
		c0-0.9-0.3-1.6-0.9-2c-0.6-0.5-1.5-0.7-2.7-0.7h-2.6V86.8L277.8,86.8z M289.4,95.5V79.8h1.4v7h2.2c1.9,0,3.3,0.3,4.2,1.1
		c0.9,0.7,1.3,1.8,1.3,3.3c0,1.4-0.5,2.5-1.5,3.2c-1,0.8-2.3,1.2-4,1.2H289.4L289.4,95.5z M290.8,94.5h2.3c1.3,0,2.3-0.3,2.9-0.9
		c0.7-0.6,1-1.4,1-2.6c0-1.2-0.3-2-1-2.6c-0.6-0.5-1.7-0.8-3-0.8h-2.3V94.5L290.8,94.5z M301.9,95.5V79.8h1.4v15.7H301.9L301.9,95.5
		z M307.8,95.5V79.8h4c1.7,0,2.9,0.3,3.8,0.9c0.9,0.6,1.3,1.6,1.3,2.8c0,2.1-1,3.4-3.1,3.7v0.1c1.2,0.2,2.1,0.6,2.7,1.2
		c0.6,0.6,0.9,1.5,0.9,2.6c0,1.4-0.4,2.5-1.2,3.3c-0.8,0.8-2,1.2-3.5,1.2H307.8L307.8,95.5z M309.3,94.5h3.2c2.3,0,3.5-1.2,3.5-3.5
		c0-1-0.3-1.9-1-2.4c-0.7-0.6-1.6-0.8-2.9-0.8h-2.8V94.5L309.3,94.5z M309.3,86.8h2.6c1.3,0,2.2-0.3,2.8-0.8
		c0.6-0.5,0.8-1.4,0.8-2.5c0-0.9-0.3-1.6-0.9-2c-0.6-0.5-1.5-0.7-2.7-0.7h-2.6V86.8L309.3,86.8z M320.9,95.5V79.8h7.6v1h-6.2v6h5.8
		v1h-5.8v6.7h6.2v1H320.9L320.9,95.5z M331.5,87.6c0-2.5,0.6-4.5,1.8-5.9c1.2-1.4,2.8-2.2,4.9-2.2c1.3,0,2.4,0.2,3.4,0.7l-0.6,0.9
		c-0.8-0.4-1.7-0.6-2.7-0.6c-1.6,0-2.8,0.6-3.8,1.9c-0.9,1.3-1.4,3-1.4,5.2c0,1.4,0.2,2.7,0.6,3.8c0.4,1.1,1,1.9,1.9,2.5
		c0.8,0.6,1.7,0.9,2.8,0.9c1.1,0,2-0.1,2.8-0.4v1c-0.7,0.3-1.7,0.5-2.9,0.5c-1.3,0-2.5-0.3-3.5-1c-1-0.6-1.8-1.6-2.3-2.8
		C331.8,90.7,331.5,89.3,331.5,87.6L331.5,87.6z M343.2,87.6c0-2.7,0.5-4.7,1.5-6.1c1-1.3,2.5-2,4.6-2c2,0,3.4,0.7,4.5,2.1
		c1,1.4,1.5,3.4,1.5,6c0,2.6-0.5,4.6-1.6,6c-1,1.4-2.5,2.1-4.5,2.1c-2,0-3.5-0.7-4.5-2.1C343.7,92.2,343.2,90.2,343.2,87.6
		L343.2,87.6z M344.7,87.6c0,2.3,0.4,4.1,1.2,5.3c0.8,1.2,1.9,1.8,3.4,1.8c1.5,0,2.6-0.6,3.4-1.8c0.8-1.2,1.2-3,1.2-5.3
		c0-2.3-0.4-4.1-1.1-5.3c-0.8-1.2-1.9-1.8-3.4-1.8c-1.5,0-2.7,0.6-3.5,1.8C345.1,83.6,344.7,85.3,344.7,87.6L344.7,87.6z
		 M359.2,95.5V79.8h1.4v7.6l5.9-7.6h1.5l-6,7.6l6.5,8.1h-1.6l-6.3-8.1v8.1H359.2L359.2,95.5z"/>
</g>
</svg>
