<?xml version="1.0" encoding="utf-8"?>
<!-- Generator: Adobe Illustrator 22.0.1, SVG Export Plug-In . SVG Version: 6.00 Build 0)  -->
<svg version="1.1" id="Capa_1" xmlns="http://www.w3.org/2000/svg" xmlns:xlink="http://www.w3.org/1999/xlink" x="0px" y="0px"
	 viewBox="0 0 512 512" style="enable-background:new 0 0 512 512;" xml:space="preserve">
<style type="text/css">
	.st0{fill:#FFFFFF;}
</style>
<g>
	<g>
		<path class="st0" d="M512,241c0-3.1-1-6.1-2.6-8.5l-59.9-89.8c-2.8-4.2-7.5-6.7-12.5-6.7H332V61c0-8.3-6.7-15-15-15H15
			C6.7,46,0,52.7,0,61c0,5.9,0,322,0,330c0,8.3,6.7,15,15,15h45c0,33.1,26.9,60,60,60s60-26.9,60-60c6.4,0,145.7,0,152,0
			c0,33.1,26.9,60,60,60s60-26.9,60-60h15c24.8,0,45-20.2,45-45L512,241C512,241,512,241,512,241C512,241,512,241,512,241
			C512,241,512,241,512,241z M120,436c-16.5,0-30-13.5-30-30s13.5-30,30-30s30,13.5,30,30S136.5,436,120,436z M302,376H171.9
			c-10.4-17.9-29.8-30-51.9-30s-41.5,12.1-51.9,30H30v-60h272V376z M302,286H30V76h272C302,81.5,302,278.1,302,286z M392,166h37
			l40,60h-22.7l-10.9-21.7c-3.7-7.4-12.7-10.4-20.1-6.7c-7.4,3.7-10.4,12.7-6.7,20.1l4.1,8.3H392V166z M392,436
			c-16.5,0-30-13.5-30-30s13.5-30,30-30s30,13.5,30,30S408.5,436,392,436z M482,361c0,8.3-6.7,15-15,15h-23.1
			c-10.4-17.9-29.8-30-51.9-30s-41.5,12.1-51.9,30H332c0-5.5,0-202.1,0-210h30v75c0,8.3,6.7,15,15,15c15.8,0,91,0,105,0V361z"/>
	</g>
</g>
<g>
	<g>
		<path class="st0" d="M267.6,170.4l-30-30c-5.9-5.9-15.4-5.9-21.2,0s-5.9,15.4,0,21.2l4.4,4.4H75c-8.3,0-15,6.7-15,15s6.7,15,15,15
			h145.8l-4.4,4.4c-5.9,5.9-5.9,15.4,0,21.2c5.9,5.9,15.4,5.9,21.2,0l30-30c0,0,0.1-0.1,0.1-0.1
			C273.4,185.7,273.5,176.2,267.6,170.4z"/>
	</g>
</g>
<g>
	<g>
		<path class="st0" d="M407,286h-30c-8.3,0-15,6.7-15,15s6.7,15,15,15h30c8.3,0,15-6.7,15-15S415.3,286,407,286z"/>
	</g>
</g>
</svg>
