<?xml version="1.0" encoding="utf-8"?>
<!-- Generator: Adobe Illustrator 22.0.1, SVG Export Plug-In . SVG Version: 6.00 Build 0)  -->
<svg version="1.1" id="Capa_1" xmlns="http://www.w3.org/2000/svg" xmlns:xlink="http://www.w3.org/1999/xlink" x="0px" y="0px"
	 viewBox="0 0 512 512" style="enable-background:new 0 0 512 512;" xml:space="preserve">
<style type="text/css">
	.st0{fill:#0F86EA;}
</style>
<g>
	<path class="st0" d="M497,0C457.1,0,33,0,15,0C6.7,0,0,6.7,0,15v482c0,8.3,6.7,15,15,15h482c8.3,0,15-6.7,15-15V361V15
		C512,6.7,505.3,0,497,0z M180,241h302v30H180V241z M180,211v-45h302v45H180z M180,136v-30h302v30H180z M180,301h302v45H180V301z
		 M482,76H180V30h302V76z M30,30h120v316H30V30z M120,481v-30c0-8.3,6.7-15,15-15s15,6.7,15,15v30H120z M240,481v-30
		c0-8.3,6.7-15,15-15s15,6.7,15,15v30H240z M360,481v-30c0-8.3,6.7-15,15-15s15,6.7,15,15v30H360z M420,482v-31
		c0-24.8-20.2-45-45-45s-45,20.2-45,45v31h-30v-31c0-24.8-20.2-45-45-45s-45,20.2-45,45v31h-30v-31c0-24.8-20.2-45-45-45
		s-45,20.2-45,45v31H30V376h452v106H420z"/>
	<path class="st0" d="M105,271H75c-8.3,0-15,6.7-15,15s6.7,15,15,15h30c8.3,0,15-6.7,15-15S113.3,271,105,271z"/>
	<path class="st0" d="M105,211H75c-8.3,0-15,6.7-15,15s6.7,15,15,15h30c8.3,0,15-6.7,15-15S113.3,211,105,211z"/>
	<path class="st0" d="M105,136H75c-8.3,0-15,6.7-15,15s6.7,15,15,15h30c8.3,0,15-6.7,15-15S113.3,136,105,136z"/>
	<path class="st0" d="M105,76H75c-8.3,0-15,6.7-15,15s6.7,15,15,15h30c8.3,0,15-6.7,15-15S113.3,76,105,76z"/>
</g>
</svg>
