<?xml version="1.0" encoding="utf-8"?>
<!-- Generator: Adobe Illustrator 22.0.1, SVG Export Plug-In . SVG Version: 6.00 Build 0)  -->
<svg version="1.1" id="Capa_1" xmlns="http://www.w3.org/2000/svg" xmlns:xlink="http://www.w3.org/1999/xlink" x="0px" y="0px"
	 viewBox="0 0 512 512" style="enable-background:new 0 0 512 512;" xml:space="preserve">
<style type="text/css">
	.st0{fill:#0F86EA;}
</style>
<g>
	<path class="st0" d="M316,122c-8.3,0-15,6.7-15,15v300c0,8.3,6.7,15,15,15s15-6.7,15-15V137C331,128.7,324.3,122,316,122z"/>
	<path class="st0" d="M196,122c-8.3,0-15,6.7-15,15v300c0,8.3,6.7,15,15,15s15-6.7,15-15V137C211,128.7,204.3,122,196,122z"/>
	<path class="st0" d="M256,122c-8.3,0-15,6.7-15,15v300c0,8.3,6.7,15,15,15s15-6.7,15-15V137C271,128.7,264.3,122,256,122z"/>
	<path class="st0" d="M497,482h-6V217c0-5.3-2.8-10.2-7.3-12.9L391,148.5V77c0-8.3-6.7-15-15-15h-15V15c0-8.3-6.7-15-15-15H166
		c-8.3,0-15,6.7-15,15v47h-15c-8.3,0-15,6.7-15,15v71.5l-92.7,55.6c-4.5,2.7-7.3,7.6-7.3,12.9v265h-6c-8.3,0-15,6.7-15,15
		s6.7,15,15,15h482c8.3,0,15-6.7,15-15S505.3,482,497,482z M181,30h150v32H181V30z M51,452h25c8.3,0,15-6.7,15-15s-6.7-15-15-15H51
		v-30h25c8.3,0,15-6.7,15-15s-6.7-15-15-15H51v-30h25c8.3,0,15-6.7,15-15s-6.7-15-15-15H51v-30h25c8.3,0,15-6.7,15-15s-6.7-15-15-15
		H51v-16.5l70-42V482H51V452z M151,92h210v390H151V92z M391,482V183.5l70,42V242h-25c-8.3,0-15,6.7-15,15c0,8.3,6.7,15,15,15h25v30
		h-25c-8.3,0-15,6.7-15,15s6.7,15,15,15h25v30h-25c-8.3,0-15,6.7-15,15s6.7,15,15,15h25v30h-25c-8.3,0-15,6.7-15,15s6.7,15,15,15h25
		v30H391z"/>
</g>
</svg>
