<?xml version="1.0" encoding="utf-8"?>
<!-- Generator: Adobe Illustrator 22.0.1, SVG Export Plug-In . SVG Version: 6.00 Build 0)  -->
<svg version="1.1" id="Capa_1" xmlns="http://www.w3.org/2000/svg" xmlns:xlink="http://www.w3.org/1999/xlink" x="0px" y="0px"
	 viewBox="0 0 512 512" style="enable-background:new 0 0 512 512;" xml:space="preserve">
<style type="text/css">
	.st0{fill:#0F86EA;}
</style>
<g>
	<g>
		<path class="st0" d="M497,421h-15V169.5l28.4-56.8c2.3-4.6,2.1-10.2-0.7-14.6S502.2,91,497,91h-86.8L263.8,2.2
			c-4.8-2.9-10.8-2.9-15.6,0L101.8,91H15c-5.2,0-10,2.7-12.8,7.1s-3,9.9-0.7,14.6L30,169.5V421H15c-8.3,0-15,6.7-15,15v61
			c0,8.3,6.7,15,15,15c7.6,0,467.1,0,482,0c8.3,0,15-6.7,15-15v-61C512,427.7,505.3,421,497,421z M106,121L106,121
			c2.7,0,5.4-0.8,7.8-2.2L256,32.5l142.2,86.3c2.3,1.4,5,2.2,7.8,2.2h66.7l-15,30H331v-45c0-8.3-6.7-15-15-15h-30
			c-8.3,0-15-6.7-15-15c0-8.3-6.7-15-15-15s-15,6.7-15,15c0,8.3-6.7,15-15,15h-30c-8.3,0-15,6.7-15,15v45H54.3l-15-30
			C39.3,121,106,121,106,121z M406,331h-15v-30h15c8.3,0,15-6.7,15-15s-6.7-15-15-15h-15v-30h15c8.3,0,15-6.7,15-15s-6.7-15-15-15
			h-15v-30h61v240h-61v-60h15c8.3,0,15-6.7,15-15S414.3,331,406,331z M301,121v37.9c0,17.2-9.5,32.6-24.9,40.2L256,209.2l-20.1-10.1
			c-15.3-7.7-24.9-23.1-24.9-40.2V121h15c11.5,0,22-4.3,30-11.5c8,7.1,18.5,11.5,30,11.5H301z M106,241h15v30h-15
			c-8.3,0-15,6.7-15,15s6.7,15,15,15h15v30h-15c-8.3,0-15,6.7-15,15s6.7,15,15,15h15v60H60V181h61v30h-15c-8.3,0-15,6.7-15,15
			S97.7,241,106,241z M181,482c-17.8,0-126.4,0-151,0v-31h151V482z M241,482h-30c0-21.9,0-90.3,0-121h30V482z M301,482h-30V361h30
			C301,380.6,301,453,301,482z M301,331h-90v-30h90V331z M316,271H196c-8.3,0-15,6.7-15,15v135h-30V181h33.3
			c5.9,19.3,19.4,35.6,38.2,45l26.8,13.4c2.1,1.1,4.4,1.6,6.7,1.6s4.6-0.5,6.7-1.6l26.8-13.4c18.7-9.4,32.3-25.7,38.2-45H361v240
			h-30V286C331,277.7,324.3,271,316,271z M482,482c-24.6,0-133.3,0-151,0v-31h151V482z"/>
	</g>
</g>
</svg>
