<?xml version="1.0" encoding="utf-8"?>
<!-- Generator: Adobe Illustrator 22.0.1, SVG Export Plug-In . SVG Version: 6.00 Build 0)  -->
<svg version="1.1" id="Capa_1" xmlns="http://www.w3.org/2000/svg" xmlns:xlink="http://www.w3.org/1999/xlink" x="0px" y="0px"
	 viewBox="0 0 512 512" style="enable-background:new 0 0 512 512;" xml:space="preserve">
<style type="text/css">
	.st0{fill:#1C6DC5;}
</style>
<g>
	<g>
		<path class="st0" d="M256,0C148.5,0,61,87.5,61,195c0,68.9,35.9,129.6,90,164.3V497c0,5.5,3,10.6,7.9,13.2
			c4.9,2.6,10.8,2.3,15.4-0.7L256,455l81.7,54.5c4.6,3.1,10.5,3.4,15.4,0.7c4.9-2.6,7.9-7.7,7.9-13.2V359.3
			c54.1-34.7,90-95.4,90-164.3C451,87.5,363.5,0,256,0z M331,469l-66.7-44.5c-5-3.4-11.6-3.4-16.6,0L181,469v-94
			c23.1,9.7,48.4,15,75,15s51.9-5.3,75-15V469z M256,360c-91,0-165-74-165-165S165,30,256,30s165,74,165,165S347,360,256,360z"/>
	</g>
</g>
<g>
	<g>
		<path class="st0" d="M375.3,159.9c-1.8-5.5-6.5-9.5-12.2-10.3l-64.8-9.2l-28.9-57.2c-2.6-5-7.7-8.2-13.4-8.2
			c-5.7,0-10.8,3.2-13.4,8.2l-28.9,57.2l-64.8,9.2c-5.7,0.8-10.4,4.8-12.2,10.3c-1.8,5.5-0.2,11.5,3.9,15.4l46.7,44.4l-11,62.6
			c-1,5.6,1.3,11.3,5.9,14.7c4.6,3.4,10.7,3.9,15.8,1.3l58-29.8l58,29.8c5.1,2.6,11.2,2.1,15.8-1.3c4.6-3.4,6.9-9.1,5.9-14.7
			l-11-62.6l46.7-44.4C375.5,171.4,377,165.4,375.3,159.9z M298.2,203.6c-3.6,3.5-5.3,8.5-4.4,13.5l7.2,40.8l-38-19.5
			c-4.3-2.2-9.4-2.2-13.7,0l-38,19.5l7.2-40.8c0.9-4.9-0.8-10-4.4-13.5L183.8,175l41.9-5.9c4.9-0.7,9.1-3.7,11.3-8.1l19.1-37.7
			l19.1,37.7c2.2,4.4,6.4,7.4,11.3,8.1l41.9,5.9L298.2,203.6z"/>
	</g>
</g>
</svg>
