<?xml version="1.0" encoding="utf-8"?>
<!-- Generator: Adobe Illustrator 22.0.1, SVG Export Plug-In . SVG Version: 6.00 Build 0)  -->
<svg version="1.1" id="Layer_1" xmlns="http://www.w3.org/2000/svg" xmlns:xlink="http://www.w3.org/1999/xlink" x="0px" y="0px"
	 viewBox="0 0 511 511" style="enable-background:new 0 0 511 511;" xml:space="preserve">
<style type="text/css">
	.st0{fill:#0F86EA;}
</style>
<path class="st0" d="M488.4,179.9L265.6,2.3c-5.6-4.4-13.4-4.4-19,0L23.7,179.9c-3.6,2.9-5.7,7.3-5.7,11.9v303
	c0,8.4,6.8,15.2,15.2,15.2h445.7c8.4,0,15.2-6.8,15.2-15.2v-303C494.2,187.2,492,182.8,488.4,179.9z M393,479.5h-35.1v-74.6
	c0-8.4-6.8-15.2-15.2-15.2h-28V315c0-8.4-6.8-15.2-15.2-15.2h-86.6c-8.4,0-15.2,6.8-15.2,15.2v74.6h-28c-8.4,0-15.2,6.8-15.2,15.2
	v74.6h-35.1V238.1H393V479.5z M228,389.6v-59.4h56.1v59.4H228z M184.7,420.1h56.1v59.4h-56.1V420.1z M271.3,479.5v-59.4h56.1v59.4
	H271.3z M463.7,479.5h-40.2V222.8c0-8.4-6.8-15.2-15.2-15.2H103.9c-8.4,0-15.2,6.8-15.2,15.2v256.7H48.5V199.1L256.1,33.7
	l207.6,165.4V479.5z"/>
<path class="st0" d="M188.2,121.5v46c0,8.4,6.8,15.2,15.2,15.2h105.2c8.4,0,15.2-6.8,15.2-15.2v-46c0-8.4-6.8-15.2-15.2-15.2H203.5
	C195.1,106.2,188.2,113,188.2,121.5z M218.7,136.7h74.7v15.6h-74.7V136.7z"/>
</svg>
